<svg width="20" height="19" viewBox="0 0 20 19" fill="none" xmlns="http://www.w3.org/2000/svg">
<g filter="url(#filter0_d_83257_297)">
<path d="M19.5 17.0083L15.8 13.3287C16.8 12.0359 17.5 10.3453 17.5 8.4558C17.5 4.08011 13.9 0.5 9.5 0.5C5.1 0.5 1.5 4.17956 1.5 8.55525C1.5 12.9309 5.1 16.511 9.5 16.511C11.3 16.511 13 15.9144 14.4 14.8204L18.1 18.5L19.5 17.0083ZM9.5 14.5221C6.2 14.5221 3.5 11.837 3.5 8.55525C3.5 5.27348 6.2 2.5884 9.5 2.5884C12.8 2.5884 15.5 5.27348 15.5 8.55525C15.5 11.837 12.8 14.5221 9.5 14.5221Z" fill="black"/>
<path d="M15.4045 13.0228L15.1344 13.372L15.4474 13.6833L18.803 17.0203L18.0876 17.7825L14.7526 14.4659L14.4398 14.1548L14.0921 14.4265C12.779 15.4525 11.187 16.0111 9.5 16.0111C5.37353 16.0111 2 12.6522 2 8.55525C2 4.45024 5.38157 1 9.5 1C13.6265 1 17 4.35886 17 8.4558C17 10.22 16.3463 11.8053 15.4045 13.0228ZM3 8.55525C3 12.1158 5.92647 15.0221 9.5 15.0221C13.0735 15.0221 16 12.1158 16 8.55525C16 4.99473 13.0735 2.0884 9.5 2.0884C5.92647 2.0884 3 4.99473 3 8.55525Z" stroke="black"/>
</g>
<defs>
<filter id="filter0_d_83257_297" x="-2.5" y="0.5" width="26" height="26" filterUnits="userSpaceOnUse" color-interpolation-filters="sRGB">
<feFlood flood-opacity="0" result="BackgroundImageFix"/>
<feColorMatrix in="SourceAlpha" type="matrix" values="0 0 0 0 0 0 0 0 0 0 0 0 0 0 0 0 0 0 127 0" result="hardAlpha"/>
<feOffset dy="4"/>
<feGaussianBlur stdDeviation="2"/>
<feComposite in2="hardAlpha" operator="out"/>
<feColorMatrix type="matrix" values="0 0 0 0 0 0 0 0 0 0 0 0 0 0 0 0 0 0 0.25 0"/>
<feBlend mode="normal" in2="BackgroundImageFix" result="effect1_dropShadow_83257_297"/>
<feBlend mode="normal" in="SourceGraphic" in2="effect1_dropShadow_83257_297" result="shape"/>
</filter>
</defs>
</svg>
